<svg version="1.1" class="clearos-svg clearfoundation app-vendor-egloo app-free app-category-system app-sub-category-backup" viewBox="0 0 400 400" preserveAspectRatio="xMinYMin" xmlns="http://www.w3.org/2000/svg" xmlns:xlink= "http://www.w3.org/1999/xlink">
<g transform="matrix(0.66225714,0,0,0.66225714,10.874128,13.911638)">
	<g>
		<path fill="#686868" d="M471.108,96.392H36.27c-20,0-36.27,16.227-36.27,36.172v304.033c0,19.945,16.27,36.172,36.27,36.172h434.838
			c20,0,36.273-16.227,36.273-36.172V132.564C507.382,112.619,491.108,96.392,471.108,96.392z M469.71,422.067
			c0,11.459-9.314,20.746-20.802,20.746H53.544c-11.49,0-20.802-9.287-20.802-20.746V147.096c0-11.457,9.314-20.747,20.802-20.747
			h395.364c11.49,0,20.802,9.29,20.802,20.747V422.067z"/>
		<path fill="#686868" d="M532.89,174.896c0,0-1.609,0-3.592,0c-1.983,0-3.593,2.727-3.593,6.086v207.199c0,3.363,1.606,6.086,3.593,6.086h3.592
			c20,0,36.271-16.227,36.271-36.172V211.068C569.16,191.123,552.89,174.896,532.89,174.896z"/>
		<path fill="#686868" d="M398.528,213.394h-62.729v45.9h62.729c12.678,0,22.95-10.272,22.95-22.95S411.206,213.394,398.528,213.394z"/>
		<path fill="#686868" d="M398.528,309.87h-62.729v45.898h62.729c12.678,0,22.95-10.271,22.95-22.949S411.206,309.87,398.528,309.87z"/>
		<path fill="#686868" d="M311.321,179.232h-98.14c-15.973,0-28.92,12.947-28.92,28.92v38.18h-9.18h-9.18h-57.05
			c-21.124,0-38.25,17.127-38.25,38.25c0,21.123,17.126,38.25,38.25,38.25h57.05h9.18h9.18v38.18c0,15.973,12.947,28.92,28.92,28.92
			h98.14c3.382,0,6.12-2.738,6.12-6.119v-29.025v-43.934v-52.538v-43.938v-29.024C317.441,181.971,314.699,179.232,311.321,179.232z
			"/>
	</g>
</g>
</svg>
